# xmcd CD database file generated by Grip 2.96
# 
# Track frame offsets:
#       150
#       17248
#       33235
#       49847
#       71218
#       90792
#       96873
#       127020
#       142030
#       163022
# 
# Disc length: 2498 seconds
# 
# Revision: 0
# Processed by: cddbd v1.4PL0 Copyright (c) Steve Scherf et al.
# Submitted via: Grip 2.96
# 
DISCID=8609c00a
DTITLE=Matt Taylor Phil Manning Band - Oz Blues
DYEAR=1900
DGENRE=
TTITLE0=Nothing
TTITLE1=Nice Friends
TTITLE2=The Line
TTITLE3=Laughing
TTITLE4=Spring Hill
TTITLE5=Blow
TTITLE6=Mannish Boy
TTITLE7=Tammy
TTITLE8=Comin' On Strong
TTITLE9=Boogie 2 (Son Of Boogie)
EXTD=
EXTT0=
EXTT1=
EXTT2=
EXTT3=
EXTT4=
EXTT5=
EXTT6=
EXTT7=
EXTT8=
EXTT9=
PLAYORDER=
